<svg xmlns="http://www.w3.org/2000/svg" width="512" height="512" viewBox="0 0 512 512" fill="none">
  <rect width="512" height="512" rx="128" fill="#3b82f6"/>
  <g transform="translate(96, 96) scale(0.625)">
    <!-- Multiple Guests Icon -->
    <path d="M384 336c-40.6 0-47.6-1.5-72.2 6.8-17.5 5.9-36.3 9.2-55.8 9.2s-38.3-3.3-55.8-9.2c-24.6-8.3-31.5-6.8-72.2-6.8C57.3 336 0 393.3 0 464v48h512v-48c0-70.7-57.3-128-128-128zm-72.4 48c10.1-4.7 30.7-12 72.4-12 32.7 0 61.3 17.4 78.7 42.7l-151.1 39.3zM32 480c10.3-24.1 34.1-42.3 64-47.8V480H32zm96-48c-17.3 12.8-30.9 30-36 48h-21.3c3.7-12.4 11.1-23.4 21.3-32zM240 480h-96v-48.5c23.1-4.9 45.7-7.5 48-7.5 24.5 0 44.8 3.6 48 4.6V480zm32 0v-51.5c3.3-1 23.5-4.6 48-4.6 2.4 0 25 2.6 48 7.5V480h-96zm205.7-97.3c10.2 8.6 17.7 19.6 21.3 32h-21.3c-5.1-17.9-18.7-35.2-36-48h.1l35.9 16zm-.7 49.3v48h-64v-47.8c29.9 5.5 53.7 23.7 64 47.8z" fill="white"/>
    <!-- Central Group of People -->
    <circle cx="256" cy="124" r="88" fill="#3b82f6" stroke="white" stroke-width="24"/>
    <path d="M112 232c0-61.9 50.1-112 112-112 8.4 0 16.6.9 24.4 2.6C237.1 82.7 205.8 56 168 56c-61.9 0-112 50.1-112 112 0 26.4 9.2 50.7 24.5 70-15.8 17.3-25.5 40.2-25.5 65.6V336h32c53 0 96-43 96-96v-8H112z" fill="white"/>
    <path d="M400 232c0-61.9-50.1-112-112-112-8.4 0-16.6.9-24.4 2.6C274.9 82.7 306.2 56 344 56c61.9 0 112 50.1 112 112 0 26.4-9.2 50.7-24.5 70 15.8 17.3 25.5 40.2 25.5 65.6V336h-32c-53 0-96-43-96-96v-8H400z" fill="white"/>
  </g>
</svg>
