<svg xmlns="http://www.w3.org/2000/svg" width="512" height="512" viewBox="0 0 512 512">
  <!-- Background circle -->
  <circle cx="256" cy="256" r="256" fill="#3b82f6" />
  
  <!-- Inner circle (lighter blue) -->
  <circle cx="256" cy="256" r="220" fill="#60a5fa" />
  
  <!-- Abstract guest/people representation -->
  <g fill="#ffffff">
    <!-- Center person (larger) -->
    <circle cx="256" cy="180" r="55" />
    <path d="M256 240 Q 256 240 320 300 Q 350 340 350 380 Q 350 410 320 420 Q 290 430 256 430 Q 222 430 192 420 Q 162 410 162 380 Q 162 340 192 300 Q 256 240 256 240" />
    
    <!-- Left person (smaller) -->
    <circle cx="170" cy="160" r="35" />
    <path d="M170 200 Q 170 200 130 230 Q 110 260 110 290 Q 110 310 135 315 Q 160 320 170 320 Q 180 320 180 300 Q 180 280 170 260 Q 160 240 170 200" />
    
    <!-- Right person (smaller) -->
    <circle cx="340" cy="160" r="35" />
    <path d="M340 200 Q 340 200 380 230 Q 400 260 400 290 Q 400 310 375 315 Q 350 320 340 320 Q 330 320 330 300 Q 330 280 340 260 Q 350 240 340 200" />
  </g>
  
  <!-- Check mark badge (for guest checked in/invited) -->
  <circle cx="380" cy="380" r="70" fill="#34d399" stroke="#ffffff" stroke-width="8" />
  <path d="M340 380 L 370 410 L 420 350" fill="none" stroke="#ffffff" stroke-width="15" stroke-linecap="round" stroke-linejoin="round" />
</svg>
